<?xml version="1.0" encoding="UTF-8" standalone="no"?>
<!-- Created with Inkscape (http://www.inkscape.org/) -->
<svg
   xmlns:svg="http://www.w3.org/2000/svg"
   xmlns="http://www.w3.org/2000/svg"
   version="1.0"
   width="1024"
   height="768"
   id="svg4844">
  <defs
     id="defs4847" />
  <path
     d="M 255.23093,763.64352 C 256.42216,753.07502 264.70615,741.94989 275,737.09433 C 279.71578,734.86991 281.85456,734.5 290,734.5 C 298.14967,734.5 300.28177,734.86916 305,737.09718 C 315.44173,742.02792 323.56167,752.93156 324.76907,763.64352 C 325.155,767.06752 324.93904,768 323.7601,768 C 322.7287,768 322.10484,766.6225 321.7631,763.59056 C 320.70397,754.19399 313.41944,744.3411 304.19487,739.82817 C 297.80249,736.70082 286.17137,736.11887 278.81759,738.55845 C 268.67708,741.9225 257.97777,755.63752 257.99505,765.25 C 257.99843,767.12731 257.48272,768 256.36995,768 C 255.03751,768 254.82955,767.20459 255.23093,763.64352 z M 699.23093,763.64352 C 700.42216,753.07502 708.70615,741.94989 719,737.09433 C 723.71578,734.86991 725.85456,734.5 734,734.5 C 742.14967,734.5 744.28177,734.86916 749,737.09718 C 759.44173,742.02792 767.56167,752.93156 768.76907,763.64352 C 769.155,767.06752 768.93904,768 767.7601,768 C 766.7287,768 766.10484,766.6225 765.7631,763.59056 C 764.70397,754.19399 757.41944,744.3411 748.19487,739.82817 C 741.80249,736.70082 730.17137,736.11887 722.81759,738.55845 C 712.67708,741.9225 701.97777,755.63752 701.99505,765.25 C 701.99843,767.12731 701.48272,768 700.36995,768 C 699.03751,768 698.82955,767.20459 699.23093,763.64352 z M 489,759.41305 C 460.29782,756.97885 440.38961,753.72214 416.41972,747.53993 C 306.93689,719.3026 214.17919,640.25711 168.18346,536 C 114.62515,414.60101 129.00127,273.1172 205.77903,166 C 229.29061,133.19761 260.39652,101.9593 292.77461,78.63413 C 390.45357,8.2662356 517.86753,-10.788219 632.26832,27.863654 C 703.66935,51.987471 766.19418,97.078165 812.02802,157.5 C 872.3702,237.04787 898.55187,339.25934 884.00672,438.5 C 866.2749,559.4832 790.88938,664.10994 681.5,719.55688 C 642.20463,739.4748 600.57427,751.98246 555,757.56327 C 543.23179,759.00435 498.84838,760.24828 489,759.41305 z M 559.57084,753.08833 C 675.63236,737.44007 774.57858,671.63159 833.89003,570.64042 C 859.34626,527.29543 875.70963,477.09297 882.17604,422.5 C 884.19133,405.48583 883.89215,357.85912 881.66094,340.5 C 875.6892,294.0391 863.40009,253.84944 843.13292,214.5 C 797.80556,126.49529 720.23448,60.358281 627,30.225339 C 560.70604,8.7994478 490.02669,6.293309 422.4888,22.97381 C 279.85193,58.202253 170.13533,176.01034 145.57717,320.30738 C 141.50697,344.2228 140.58551,356.13453 140.57275,385 C 140.55922,415.57906 141.93219,430.67895 147.07393,456.5 C 177.05168,607.0439 296.6523,723.98819 447.64582,750.39618 C 455.26562,751.72884 466.675,753.31119 473,753.91252 C 479.325,754.51384 486.075,755.18784 488,755.4103 C 489.925,755.63276 503.425,755.65851 518,755.46753 C 537.3615,755.21383 548.55974,754.57293 559.57084,753.08833 z M 463.77458,730.94388 L 421.04915,707.0958 L 374.27458,705.42456 C 348.54856,704.50538 326.41246,703.69632 325.08324,703.62666 C 323.00503,703.51774 319.03508,697.47625 296.74409,660.5 L 270.82171,617.5 L 231.84765,593.05225 C 210.41192,579.60598 192.62625,568.20427 192.32393,567.71511 C 192.02161,567.22596 192.25492,566.34508 192.84239,565.75761 C 193.59988,565.00012 204.39929,571.27087 229.97734,587.32028 C 253.16929,601.87248 265.62023,609.15661 264.85656,607.72553 C 264.20337,606.50149 255.81308,592.50106 246.21147,576.61346 C 236.60986,560.72586 228.47185,546.75899 228.127,545.57598 C 227.26787,542.62871 191.94175,476 191.23826,476 C 190.92819,476 190.97605,496.2214 191.34461,520.93644 C 192.00225,565.03694 191.78443,569.21349 188.97548,566.36287 C 188.50784,565.88829 187.73593,543 187.26012,515.5 L 186.39502,465.5 L 164.5904,424.65711 C 149.76932,396.89528 143.11246,383.48754 143.80576,382.79424 C 144.36675,382.23325 145.261,382.04327 145.79298,382.37206 C 146.32497,382.70084 154.55728,397.71413 164.08701,415.73493 C 173.61674,433.75572 182.47146,450.3 183.76418,452.5 L 186.11456,456.5 L 185.87893,418 C 185.74388,395.93379 186.30417,363.06621 187.19153,341 C 188.04306,319.825 188.66675,302.40594 188.57752,302.29097 C 188.48828,302.176 178.59371,319.84478 166.58957,341.55492 C 154.58544,363.26506 144.32779,381.29741 143.7948,381.62682 C 141.96317,382.75883 140.43626,380.13233 141.72569,378.06763 C 142.37228,377.03228 153.24886,357.50174 165.89588,334.66642 L 188.89046,293.14766 L 190.57653,246.32383 C 191.50388,220.57072 192.31602,198.41152 192.38131,197.08116 C 192.48347,194.99918 198.3466,191.13395 234.48161,169.32682 C 257.5715,155.39229 277.41545,142.98077 278.57929,141.74566 C 279.74312,140.51055 290.94155,123.075 303.46469,103 C 315.98783,82.925 326.85317,65.844286 327.60988,65.042857 C 329.61058,62.923921 331.95769,65.292172 330.32013,67.777524 C 329.69593,68.724886 319.46227,84.958935 307.57867,103.85319 L 285.97212,138.20638 L 290.73606,135.42604 C 293.35623,133.89686 307.60168,125.30042 322.39262,116.32285 C 337.18356,107.34528 349.79863,100 350.42609,100 C 351.65315,100 418.62885,64.741367 419.798,63.479906 C 420.1841,63.063324 400.1661,63.013236 375.31356,63.368599 C 330.97279,64.002622 326.78761,63.783348 329.63713,60.975482 C 330.11171,60.507843 353,59.735116 380.5,59.258312 L 430.5,58.391395 L 468.5,38.095089 C 489.4,26.93212 507.73308,17.074641 509.24019,16.18958 C 511.2666,14.999549 512.27282,14.872817 513.10306,15.703056 C 513.72053,16.32053 513.95385,17.26565 513.62155,17.803323 C 513.28925,18.340996 498.27596,26.575216 480.25869,36.101589 C 462.24141,45.627962 445.7,54.483444 443.5,55.780438 L 439.5,58.138609 L 477,57.87996 C 499.24396,57.726536 530.56833,58.276055 553.99662,59.230699 C 575.71977,60.115863 593.59752,60.735811 593.72497,60.608363 C 593.85242,60.480914 576.18183,50.558378 554.457,38.558283 C 532.73216,26.558188 514.69112,16.309235 514.36578,15.782832 C 514.04045,15.256429 514.23849,14.361512 514.80587,13.794128 C 515.51468,13.085319 529.46415,20.308989 559.38604,36.879762 L 602.9346,60.997003 L 647.7173,62.524792 C 672.34778,63.365077 694.49951,64.173239 696.94336,64.320708 L 701.38673,64.588835 L 727.28251,107.54442 L 753.17829,150.5 L 792.15235,174.94775 C 813.58808,188.39402 831.37375,199.79573 831.67607,200.28489 C 831.97839,200.77404 831.74508,201.65492 831.15761,202.24239 C 830.40012,202.99988 819.60071,196.72913 794.02266,180.67972 C 770.83071,166.12752 758.37977,158.84339 759.14344,160.27447 C 759.79663,161.49851 768.13859,175.41899 777.68113,191.20887 C 787.22367,206.99874 795.30365,220.72374 795.63664,221.70887 C 796.3313,223.76396 833.33212,294.03799 833.54873,293.71364 C 833.62721,293.59614 833.3226,273.03574 832.87183,248.02387 C 832.07832,203.99379 832.30575,198.90007 834.94683,201.55 C 835.49279,202.09778 836.26291,223.51713 836.7658,252.14073 L 837.63795,301.78147 L 858.483,341.14073 C 869.94778,362.78833 879.80547,381.27627 880.38899,382.22504 C 881.65018,384.27569 879.64569,387.05431 878.06251,385.45 C 877.54689,384.9275 868.56168,368.35229 858.09538,348.6162 C 847.62908,328.88011 838.80497,312.47163 838.48625,312.15291 C 838.16753,311.8342 837.99921,330.0069 838.1122,352.53671 C 838.22687,375.40114 837.67182,409.40592 836.85595,429.5 C 836.05202,449.3 835.4526,465.60955 835.52391,465.74344 C 835.59521,465.87734 845.53583,448.13423 857.61417,426.31431 C 869.69251,404.4944 880.12022,386.45993 880.78687,386.23771 C 881.45351,386.0155 882.23499,386.44881 882.5235,387.20063 C 882.812,387.95246 873.32052,406.10238 861.43133,427.53379 C 849.54213,448.96521 838.77576,468.53485 837.50605,471.02188 C 835.2778,475.38647 835.13843,477.16047 833.49929,522.02188 C 832.56528,547.58485 831.73334,569.58848 831.65054,570.91884 C 831.52159,572.99086 825.48046,576.97042 789.51839,598.67318 C 766.4285,612.60771 746.58455,625.01923 745.42071,626.25434 C 744.25688,627.48945 733.05845,644.925 720.53531,665 C 708.01217,685.075 697.14683,702.15571 696.39012,702.95714 C 694.38942,705.07608 692.04231,702.70783 693.67987,700.22248 C 700.39661,690.02837 737.77474,630.00424 737.22748,630.29099 C 736.82737,630.50065 722.775,638.95839 706,649.08597 C 689.225,659.21355 674.15,667.97449 672.5,668.55472 C 668.9577,669.8004 604.93768,703.70277 603.5471,705.06935 C 602.95442,705.6518 606.54555,705.82143 613.0471,705.51809 C 618.7962,705.24985 639.33458,704.79634 658.68796,704.5103 C 693.13159,704.00121 697.11585,704.28415 694.35676,707.04324 C 693.87883,707.52117 671.16075,708.30006 643.87215,708.7741 L 594.25651,709.63599 L 554.87825,730.48393 C 533.22021,741.95029 514.72373,751.80842 513.77496,752.39089 C 511.72234,753.65102 508.94885,751.64525 510.55,750.05861 C 511.0725,749.54085 527.65492,740.54843 547.39982,730.07546 C 567.14472,719.60249 583.56972,710.75797 583.89982,710.42098 C 584.22992,710.08399 567.175,709.94741 546,710.11747 C 522.46148,710.30651 492.53852,709.81739 469,708.85881 C 447.825,707.99649 430.37759,707.3854 430.22797,707.50084 C 430.07836,707.61627 447.85336,717.60038 469.72797,729.68775 C 506.16423,749.82151 512.76679,754.12485 508,754.63229 C 507.175,754.72011 487.27356,744.06033 463.77458,730.94388 z M 599.5,702.25948 C 613.69791,695.05971 670.53099,664.75232 671.45,663.89069 C 671.9725,663.40081 673.05059,663 673.84575,663 C 675.72054,663 739.84182,624.40833 742.59767,621.62136 C 743.75139,620.45461 754.94705,603.075 767.47692,583 C 780.00679,562.925 790.82524,545.825 791.51793,545 C 792.21062,544.175 801.37094,527.96902 811.8742,508.9867 L 830.97104,474.4734 L 832.73552,429.4867 C 833.92194,399.23811 834.38399,371.1197 834.14591,343.6579 L 833.79181,302.81579 L 813.24998,264.1579 C 801.95197,242.89605 792.10785,224.07358 791.37415,222.33017 C 789.55371,218.00446 752.22569,155.92703 750.15666,153.78446 C 745.8791,149.35486 668.78477,102.02979 637.37708,84.553662 L 602.25415,65.010275 L 557.37708,63.261818 C 527.9513,62.115359 498.55574,61.625243 472,61.838314 L 431.5,62.163268 L 392.5,82.712571 C 371.05,94.014688 353.0725,103.65295 352.55,104.13094 C 352.0275,104.60892 350.94941,105 350.15425,105 C 348.55845,105 284.52511,143.29076 281.78978,145.88069 C 277.52342,149.92028 230.24147,226.96231 212.65666,258.5274 L 193.143,293.5548 L 191.33119,339.0274 C 190.10841,369.71641 189.63059,397.50439 189.86146,424.5 L 190.20355,464.5 L 198.02398,479.5 C 202.32521,487.75 211.95442,505.9644 219.4222,519.97645 C 226.88999,533.98849 233,545.85083 233,546.33719 C 233,547.83709 272.8364,613.54757 274.72415,615.16152 C 275.70087,615.99658 291.125,625.82813 309,637.00941 C 326.875,648.19069 345.1,659.6631 349.5,662.50366 C 353.9,665.34421 371.96495,675.6405 389.64434,685.3843 L 421.78868,703.1003 L 465.14434,704.55257 C 488.98995,705.35133 509.625,706.18185 511,706.39819 C 512.375,706.61452 531.275,706.57049 553,706.30035 L 592.5,705.80919 L 599.5,702.25948 z M 485.84514,597.60871 C 473.00531,579.73672 462.1298,565.08849 461.67734,565.05709 C 461.22488,565.02569 444.41121,572.01383 424.31363,580.58629 C 404.21605,589.15875 387.41517,595.79625 386.97833,595.33629 C 386.5415,594.87633 384.43393,576.725 382.29485,555 L 378.4056,515.5 L 338.97488,510.72208 C 317.28798,508.09422 299.13897,505.53897 298.64374,505.04374 C 298.10985,504.50985 304.328,489.41626 313.91933,467.96466 C 322.81613,448.0664 329.96138,431.39288 329.79767,430.91239 C 329.63395,430.43191 315.325,419.53757 298,406.70274 C 280.675,393.86792 266.5,382.76922 266.5,382.03896 C 266.5,381.30871 280.45,370.63385 297.5,358.31705 C 314.55,346.00025 329.12192,335.30223 329.88203,334.54368 C 331.0577,333.37044 328.91579,327.68626 315.53762,296.47667 C 306.88807,276.29836 300.19116,259.41614 300.65559,258.96063 C 301.12001,258.50511 318.95515,256.43078 340.28923,254.35098 C 361.62331,252.27119 379.45226,250.32889 379.90912,250.03477 C 380.36598,249.74065 382.84238,231.95345 385.41223,210.50766 C 387.98208,189.06187 390.51112,171.08888 391.03233,170.56767 C 391.62919,169.97081 393.37179,170.28731 395.73999,171.42271 C 409.70501,178.11802 464.35543,202.04819 465.10796,201.79735 C 465.61705,201.62765 476.53834,187.31633 489.37751,169.9944 C 502.21668,152.67248 513.3148,138.5 514.04,138.5 C 514.7652,138.5 525.42776,152.45 537.73458,169.5 C 550.0414,186.55 560.70291,201.10111 561.42682,201.8358 C 562.52222,202.94751 568.90673,200.54252 599.48522,187.49951 C 619.69343,178.87986 636.60709,172.20709 637.07113,172.67113 C 637.53517,173.13517 639.66319,191.17819 641.80006,212.76673 C 643.93694,234.35527 645.8686,252.18682 646.09264,252.39241 C 646.31669,252.598 664.05,254.87406 685.5,257.45032 C 706.95,260.02659 724.89525,262.52195 725.37834,262.99556 C 725.87895,263.48636 719.32072,279.36939 710.12834,299.92873 C 701.25775,319.76836 694,336.39733 694,336.882 C 694,337.36667 708.42144,348.43967 726.04765,361.48866 C 743.67386,374.53765 757.92589,385.72843 757.71882,386.35705 C 757.51176,386.98567 743.33521,397.625 726.21537,410 C 709.09554,422.375 694.56102,433.02999 693.91645,433.67775 C 693.01961,434.57903 696.43513,443.46526 708.46667,471.53333 C 717.43514,492.45567 723.81345,508.58655 723.31497,509.08503 C 722.83434,509.56566 706.02936,511.54669 685.97055,513.48734 C 665.91175,515.42798 648.13934,517.23852 646.47631,517.51075 L 643.45262,518.00571 L 639.11913,554.75286 C 634.1196,597.14787 634.04675,597.55101 631.41902,597.36187 C 630.36356,597.2859 613.82621,590.173 594.66935,581.55542 C 575.51249,572.93785 559.4382,566.025 558.9487,566.19355 C 558.45921,566.3621 547.583,580.6401 534.77936,597.92246 C 521.97571,615.20481 510.98031,629.51554 510.34514,629.72408 C 509.70996,629.93262 498.68496,615.4807 485.84514,597.60871 z M 532.8334,594 C 544.87207,577.775 554.5803,564.23918 554.40724,563.92039 C 554.23418,563.60161 544.24433,558.94397 532.20759,553.57008 L 510.32259,543.79937 L 488.9113,552.96103 C 477.13508,557.99994 467.1559,562.46168 466.73534,562.876 C 465.89091,563.70791 509.06479,624.13902 510.22245,623.74555 C 510.6198,623.6105 520.79473,610.225 532.8334,594 z M 635.00543,555.23125 C 637.36515,535.28343 639.11677,518.79724 638.89791,518.59527 C 638.67906,518.39329 627.925,519.28691 615,520.5811 C 602.075,521.87528 591.22632,522.94897 590.89183,522.96708 C 590.14491,523.00751 563.24671,559.19352 562.48172,561.18705 C 562.0717,562.25553 570.47524,566.43615 595.71647,577.72079 C 614.29741,586.0278 629.77338,592.52645 630.10751,592.16222 C 630.44165,591.798 632.64571,575.17906 635.00543,555.23125 z M 427.5,575.02901 C 444.55,567.73316 458.67149,561.60798 458.88109,561.41749 C 459.27022,561.06385 436.19023,528.53748 432.42378,524.1315 C 430.48724,521.86614 428.74477,521.50995 406.52184,518.83666 C 393.41768,517.2603 382.60992,516.08968 382.50459,516.23528 C 382.33895,516.46424 389.6451,590.05588 389.90372,590.76342 C 390.01909,591.07907 388.78112,591.59718 427.5,575.02901 z M 488.32577,549.02176 C 509.89806,539.79139 512.31014,538.97069 513.82836,540.34466 C 517.02064,543.23364 556.37064,560.25676 557.77399,559.35589 C 558.50729,558.88515 565.78354,549.5 573.94345,538.5 C 584.6806,524.02572 589.29358,518.55076 590.63982,518.68373 C 593.21991,518.93856 638.92423,514.4091 639.49092,513.84241 C 639.86474,513.46859 645.98195,465.39164 645.99591,462.71778 C 645.99816,462.28755 646.80602,461.61255 647.79115,461.21778 C 650.76119,460.02758 688.01254,432.83342 687.62033,432.14176 C 687.42018,431.78879 682.65499,420.78375 677.03103,407.68611 C 667.67711,385.90176 666.93788,383.72613 668.35712,382.15788 C 669.84999,380.50828 688,340.59642 688,338.96321 C 688,338.52385 678.52679,331.12996 666.94843,322.53235 C 650.79042,310.53408 646.02336,306.50174 646.44107,305.18567 C 646.97266,303.51078 642.64336,257.30923 641.8838,256.55129 C 641.67271,256.34064 630.07072,254.76572 616.10161,253.05145 C 602.13249,251.33719 590.31999,249.69776 589.85161,249.40829 C 589.38322,249.11881 589,248.46657 589,247.95887 C 589,246.52964 560.86772,207.96538 560.14188,208.39963 C 559.78885,208.61084 548.7784,213.37122 535.67423,218.97824 C 514.10194,228.20861 511.68986,229.02931 510.17164,227.65534 C 508.45696,226.10357 468.78653,208 467.10082,208 C 466.58883,208 459.13212,217.48871 450.53034,229.08603 C 440.67693,242.37085 434.40479,249.98557 433.57723,249.66801 C 432.3399,249.1932 385.11393,253.54925 384.47237,254.19736 C 384.3076,254.36381 382.79531,265.975 381.11174,280 C 378.67641,300.28745 377.7161,305.70441 376.41389,306.5 C 368.51304,311.32702 336.57145,335.37011 336.82157,336.30195 C 336.99843,336.96088 341.65466,347.99125 347.16874,360.81389 C 356.33963,382.14019 357.06208,384.27392 355.64288,385.84212 C 354.09867,387.54845 336,427.4316 336,429.12816 C 336,429.61777 345.47606,437.04679 357.0579,445.63709 C 369.67028,454.99175 377.92239,461.75987 377.63354,462.51259 C 377.12762,463.83101 381.52667,510.86 382.22085,511.55418 C 382.44108,511.77442 394.06899,513.33817 408.06064,515.02919 C 427.69125,517.40173 433.72834,518.46254 434.5,519.67498 C 438.88343,526.56228 463.41213,559.86604 463.89076,559.58019 C 464.22584,559.38008 475.2216,554.62878 488.32577,549.02176 z M 507.21707,495.30745 C 505.05103,491.56335 500.57748,483.79546 497.27583,478.04547 C 493.97419,472.29548 490.8702,467.45673 490.37809,467.2927 C 489.88598,467.12866 481.61209,471.27488 471.99167,476.50652 C 462.37125,481.73816 453.9375,485.80353 453.25,485.54068 C 452.30791,485.18049 452,480.1628 452,465.17068 L 452,445.27858 L 446.75,444.64798 C 443.8625,444.30115 434.62338,444.01347 426.21862,444.00869 C 413.50598,444.00146 410.83965,443.74571 410.35674,442.48727 C 410.03747,441.65526 410.23814,440.41776 410.80268,439.73727 C 411.36721,439.05677 415.90471,431.38974 420.88601,422.69943 L 429.94291,406.89886 L 426.72145,404.95935 C 403.96749,391.26002 394.5,385.11116 394.5,384.03244 C 394.5,383.31737 402.44286,378.19002 412.1508,372.63831 L 429.8016,362.5443 L 425.69142,355.02215 C 423.43081,350.88497 418.96484,342.78968 415.76704,337.03263 C 412.56923,331.27558 410.17433,325.98808 410.44504,325.28263 C 410.82264,324.2986 415.56824,324 430.82932,324 L 450.72142,324 L 451.35202,318.75 C 451.69885,315.8625 451.98653,306.62338 451.99131,298.21862 C 451.99786,286.70147 452.31649,282.81578 453.28484,282.44419 C 453.99149,282.17302 462.0863,286.27638 471.27329,291.56276 C 480.46028,296.84914 488.42425,301.02263 488.97099,300.83718 C 489.51773,300.65173 494.62131,292.85 500.31226,283.5 C 506.00322,274.15 511.27937,266.5 512.03705,266.5 C 512.79473,266.5 517.78702,274.13856 523.13104,283.47457 C 528.47506,292.81059 533.27912,300.59304 533.80673,300.76891 C 534.68252,301.06084 564.85657,285.04399 567.73727,282.75806 C 568.41776,282.21806 569.65526,282.03747 570.48727,282.35674 C 571.76961,282.84882 572,286.06417 572,303.46862 L 572,324 L 592.53138,324 C 608.68736,324 613.17148,324.28329 613.57288,325.32932 C 613.85343,326.06044 609.76265,334.19295 604.48224,343.40155 C 599.20182,352.61015 595.02117,360.56352 595.1919,361.07569 C 595.36262,361.58786 603.15178,366.65676 612.50115,372.33991 C 621.85052,378.02307 629.5,383.30901 629.5,384.08646 C 629.5,384.86663 621.8827,389.86991 612.5,395.25261 C 603.15,400.61654 595.37689,405.37338 595.22642,405.82335 C 595.07595,406.27333 599.24762,414.47373 604.4968,424.04645 C 609.74598,433.61917 613.82071,442.02483 613.55176,442.7257 C 613.17829,443.69896 608.36673,444 593.18417,444 L 573.30558,444 L 572.65734,455.25 C 572.3008,461.4375 572.00705,470.67662 572.00455,475.78138 C 572.0013,482.41477 571.63343,485.20343 570.71516,485.55581 C 570.00851,485.82698 561.9137,481.72362 552.72671,476.43724 C 543.53972,471.15086 535.57575,466.97737 535.02901,467.16282 C 534.48227,467.34827 529.3982,475.11796 523.73109,484.42879 C 518.06397,493.73963 512.91606,501.52798 512.29128,501.73624 C 511.6665,501.9445 509.38311,499.05154 507.21707,495.30745 z M 521.98507,479.80836 C 532.51119,462.44815 532.67889,464.75414 520.39571,457.95388 L 513.29143,454.02078 L 503.69616,459.25361 L 494.10089,464.48644 L 496.43261,468.65835 C 505.60373,485.06726 511.50807,495 512.09094,495 C 512.46653,495 516.91889,488.16376 521.98507,479.80836 z M 472.65855,471.75 C 481.08335,467.2125 487.98169,463.11049 487.98819,462.63442 C 487.99468,462.15835 485.8625,457.99882 483.25,453.39102 L 478.5,445.0132 L 467.25,445.0066 L 456,445 L 456,462.5 C 456,472.125 456.30166,480 456.67036,480 C 457.03906,480 464.23374,476.2875 472.65855,471.75 z M 568,468.14669 C 568,461.62737 568.28911,453.52737 568.64246,450.14669 L 569.28491,444 L 558.89246,444.00165 L 548.5,444.0033 L 543.33035,452.25165 C 540.48704,456.78824 538.01204,461.0709 537.83035,461.76866 C 537.5491,462.84875 564.9603,479.78633 567.25,479.94728 C 567.6625,479.97628 568,474.66601 568,468.14669 z M 504.68572,454.1853 C 512.94144,449.31756 513.69116,449.36639 524.09419,455.44943 C 532.4774,460.35141 533.50275,460.71949 534.5222,459.19298 C 535.14404,458.26184 537.37584,454.575 539.48175,451 C 546.09151,439.77925 545.71638,440 558.17431,440 L 569,440 L 569.01365,429.75 C 569.02116,424.1125 569.30198,418.47475 569.6377,417.22167 C 570.03362,415.74383 572.7518,413.50512 577.37404,410.84996 C 581.29332,408.5986 585.53104,406.11383 586.79119,405.32825 L 589.08239,403.89991 L 584.15122,394.69996 C 577.72016,382.70171 577.43251,381.61906 579.78034,378.24931 C 580.8339,376.73719 583.32321,372.56056 585.31215,368.96792 L 588.92839,362.43584 L 580.7142,357.57368 C 567.56558,349.79073 568,350.46547 568,337.82569 L 568,327 L 557.5651,327 C 551.8259,327 546.08621,326.60308 544.81023,326.11795 C 543.35523,325.56476 540.6874,322.024 537.6547,316.62108 C 534.99514,311.88293 532.50188,307.81018 532.11412,307.57053 C 531.72636,307.33088 527.54775,309.29171 522.82833,311.92793 C 510.37436,318.88458 510.72188,318.87514 499.90581,312.55057 C 491.5226,307.64859 490.49725,307.28051 489.4778,308.80702 C 488.85596,309.73816 486.62416,313.425 484.51825,317 C 477.90849,328.22075 478.28362,328 465.82569,328 L 455,328 L 455,338.4349 C 455,344.1741 454.58067,349.97273 454.06815,351.32075 C 453.45557,352.93195 450.02193,355.55391 444.04645,358.97342 L 434.95659,364.17515 L 439.13273,371.83757 C 441.42961,376.05191 443.62732,379.95 444.01655,380.5 C 444.40577,381.05 445.01304,382.71038 445.36604,384.18973 C 445.98917,386.80119 444.87188,389.22687 436.9139,402.53965 L 435.09688,405.57931 L 443.29844,410.43389 C 456.42265,418.20225 456,417.54817 456,430.09057 L 456,440.8325 L 468.09053,441.16625 C 481.96308,441.54919 480.65881,440.73805 487.77333,453.40716 L 492.04665,461.01685 L 495.95256,459.0242 C 498.10081,457.92825 502.03073,455.75074 504.68572,454.1853 z M 502,420.46236 C 490.68555,417.30848 479.98325,407.40504 476.39699,396.77048 C 475.24368,393.35047 474.62172,388.51564 474.62554,383 C 474.6306,375.70538 475.03883,373.64914 477.50429,368.5 C 480.91009,361.38693 488.70173,353.26774 495.06534,350.2007 C 508.83803,343.56276 525.45385,345.66807 536.64827,355.46949 C 553.87884,370.55592 554.25828,396.50988 537.47255,411.8511 C 528.13721,420.38306 514.01467,423.81143 502,420.46236 z M 526.8568,414.57256 C 533.7808,411.06391 539.61856,405.05859 542.82313,398.14796 C 544.98813,393.47914 545.44719,391.02642 545.47109,384 C 545.49538,376.85763 545.07707,374.5979 542.85204,369.85204 C 539.47995,362.65954 533.34046,356.52005 526.14796,353.14796 C 521.42246,350.93248 519.11173,350.50088 512,350.50537 C 504.7414,350.50995 502.67284,350.91615 497.83634,353.28667 C 469.95179,366.95378 472.5059,407.04722 501.86316,416.49821 C 508.90625,418.76559 520.3172,417.88643 526.8568,414.57256 z M 452,430.63511 L 452,420.27021 L 443.25,414.97182 C 438.4375,412.0577 434.208,409.52346 433.85112,409.34019 C 433.34939,409.08252 417.66751,435.53279 416.17859,439.14804 C 415.8867,439.85679 421.02237,440.15702 444.25,440.7891 L 452,441 L 452,430.63511 z M 600.15322,424.0187 C 595.39395,415.22899 591.20068,408.02899 590.83485,408.0187 C 590.46902,408.00842 586.41902,410.16047 581.83485,412.80105 L 573.5,417.6021 L 573.21725,428.80105 L 572.9345,440 L 590.87047,440 L 608.80645,440 L 600.15322,424.0187 z M 437.3502,393.91883 L 442.21338,385.5 L 437.94291,377.5 C 435.59415,373.1 433.16861,368.75153 432.55282,367.83673 C 431.55756,366.35822 429.74425,367.13576 416.22808,374.83673 C 407.86527,379.60153 401.14597,383.8845 401.2963,384.35443 C 401.6942,385.59829 430.31704,402.87877 431.49351,402.5854 C 432.03994,402.44915 434.67545,398.54919 437.3502,393.91883 z M 608.31619,393.14691 C 616.39228,388.55271 623,384.41859 623,383.95999 C 623,383.26402 593.63595,365 592.51701,365 C 592.31532,365 589.87069,368.98356 587.08449,373.85236 L 582.01868,382.70471 L 587.25934,392.34464 C 590.1417,397.6466 592.75478,401.87554 593.06619,401.74228 C 593.37759,401.60903 600.24009,397.74111 608.31619,393.14691 z M 442.60898,355.25 L 450.9868,350.5 L 450.9934,339.25 L 451,328 L 433.5,328 C 423.875,328 416,328.24769 416,328.55043 C 416,329.92214 432.59666,359.95781 433.36558,359.97766 C 433.84165,359.98995 438.00118,357.8625 442.60898,355.25 z M 600.57025,342.2802 C 604.76536,334.90151 608.04074,328.72814 607.84886,328.5616 C 607.65699,328.39507 599.5125,328.02936 589.75,327.74892 L 572,327.23902 L 572,337.49911 L 572,347.7592 L 581.25,353.38851 C 589.5793,358.45751 590.62157,358.8525 591.72139,357.35691 C 592.39315,356.44341 596.37514,349.65889 600.57025,342.2802 z M 479.42346,317.75 C 481.57823,314.3125 484.18159,310.08379 485.2087,308.35287 L 487.07616,305.20574 L 472.06512,296.60287 C 463.80905,291.87129 456.81691,288 456.52704,288 C 456.23717,288 456,296.1 456,306 L 456,324 L 465.75284,324 L 475.50568,324 L 479.42346,317.75 z M 568,305.5 C 568,295.875 567.74277,288 567.42837,288 C 566.90048,288 537.08885,303.88721 536.0281,304.73383 C 535.55384,305.11235 539.32817,312.26773 543.68509,319.25 L 546.02509,323 L 557.01254,323 L 568,323 L 568,305.5 z M 520.13432,308.98024 C 525.21552,306.21937 529.51996,303.81337 529.69975,303.63359 C 530.23019,303.10314 512.82801,273 511.99093,273 C 510.65139,273 492.83656,303.23726 493.68574,304.06955 C 494.3983,304.76795 510.17973,313.97309 510.69789,313.99256 C 510.80673,313.99665 515.05312,311.74111 520.13432,308.98024 z M 683.5,509.89549 C 702.2,508.14136 717.80268,506.43477 718.17263,506.10308 C 718.71043,505.62089 690.74951,438.43637 689.4733,437.14432 C 689.15783,436.82495 657.58448,459.27688 652.07288,463.7399 C 650.06085,465.36914 649.58262,467.58457 647.47729,485.02919 C 646.18486,495.73814 644.8529,506.67783 644.51738,509.33963 L 643.90733,514.17926 L 646.70367,513.63204 C 648.24165,513.33106 664.8,511.64962 683.5,509.89549 z M 377.59468,506.25 C 377.26854,503.6375 376.3296,494.525 375.50815,486 C 374.6867,477.475 373.76476,468.62763 373.4594,466.33918 C 372.91561,462.26387 372.51391,461.88886 353.90995,448.08918 C 343.46311,440.34013 334.55607,434 334.11652,434 C 333.40234,434 304.29186,498.45029 303.72955,501.27641 C 303.5726,502.06526 314.09497,503.74879 337,506.59951 C 355.425,508.89265 372.22973,510.82087 374.34384,510.88443 L 378.18768,511 L 377.59468,506.25 z M 723.86784,406.82382 C 739.06553,395.83721 751.5,386.46391 751.5,385.99426 C 751.5,385.52461 738.11558,375.22516 721.75685,363.10658 L 692.01371,341.07282 L 690.64422,343.78641 C 689.891,345.27888 685.35442,355.34004 680.56292,366.14453 L 671.8511,385.78906 L 680.54379,406.14453 C 685.32477,417.34004 689.66551,427.31814 690.18986,428.31808 C 691.3697,430.56801 688.4074,432.45864 723.86784,406.82382 z M 342.38509,404.15692 L 352.14755,382.19864 L 343.01243,360.84932 C 337.98811,349.10719 333.54548,339.16306 333.1399,338.75125 C 332.31915,337.91787 271.90375,381.07269 272.26928,382.23123 C 272.6206,383.34471 331.41852,426.82394 332.06132,426.44559 C 332.37004,426.26387 337.01574,416.23397 342.38509,404.15692 z M 705.36178,300.93866 C 713.43529,282.75493 720.14419,267.37875 720.27045,266.76939 C 720.42229,266.03652 708.03941,264.15841 683.69247,261.22159 C 663.44833,258.77966 646.72596,256.94334 646.53164,257.14086 C 645.84793,257.83588 650.95629,305.35629 651.80607,306.20607 C 654.20311,308.60311 688.6533,333.88982 689.59133,333.94075 C 690.19156,333.97334 697.28826,319.1224 705.36178,300.93866 z M 354.57809,317.08231 C 364.81777,309.70259 373.57537,302.72759 374.03944,301.58231 C 374.91046,299.43272 380.36719,254.97525 379.81178,254.55346 C 379.30206,254.16637 306.09968,261.5662 305.62253,262.05305 C 304.92767,262.76203 334.30505,331.06572 335.17673,330.76784 C 335.6078,330.62053 344.33842,324.46204 354.57809,317.08231 z M 641.63681,249.25 C 641.34966,247.7375 639.67287,231.2 637.9106,212.5 C 636.14834,193.8 634.43503,178.19152 634.10325,177.81449 C 633.77146,177.43745 618.425,183.60904 600,191.52911 C 581.575,199.44919 566.07477,206.08691 565.55503,206.27961 C 564.61597,206.62779 591.235,244.39203 593.37867,245.75283 C 594.45585,246.43662 633.50898,251.64824 639.32946,251.88494 C 641.89461,251.98925 642.11014,251.74312 641.63681,249.25 z M 410,247.48468 C 419.075,246.63828 428.17555,245.69544 430.22344,245.38948 C 433.71377,244.86801 434.825,243.6476 447.97344,225.89556 C 455.68805,215.47987 462,206.59681 462,206.15544 C 462,205.71407 446.8125,198.56323 428.25,190.26469 C 399.46296,177.39518 394.39926,175.42081 393.81495,176.83822 C 393.25522,178.19601 384.91761,246.59742 384.98104,249.31127 C 384.99147,249.75747 386.9125,249.87528 389.25,249.57306 C 391.5875,249.27085 400.925,248.33107 410,247.48468 z M 535.32297,214.93865 C 546.97034,209.95491 556.86252,205.5199 557.30559,205.08306 C 558.16244,204.23828 515.5195,144.5 514.05962,144.5 C 513.5863,144.5 503.25245,157.91157 491.0955,174.30349 L 468.99197,204.10697 L 474.74598,206.74717 C 493.62472,215.40958 512.614,223.867 513.32297,223.92855 C 513.77561,223.96785 523.67561,219.92239 535.32297,214.93865 z M 412,702.56312 C 412,702.32284 397.9375,694.37892 380.75,684.90997 C 363.5625,675.44103 348.6,666.93321 347.5,666.00371 C 345.99028,664.72801 287.80503,628.05314 280.15704,623.55663 C 278.27938,622.45269 278.23211,622.3701 303.5,664.34321 C 322.13382,695.2963 325.80602,700.82311 327.5,700.46417 C 328.6,700.23109 345.7,700.64297 365.5,701.37944 C 410.67587,703.05979 412,703.0935 412,702.56312 z M 793.5,591.70051 C 827.72689,570.96829 828.49422,570.43373 828.23814,567.5 C 828.09412,565.85 828.61231,546.5 829.38966,524.5 C 830.16702,502.5 830.67199,484.36214 830.51182,484.19363 C 830.35165,484.02513 822.4563,497.97513 812.96661,515.19363 C 803.47691,532.41214 794.95245,547.4 794.02335,548.5 C 792.75807,549.99804 756.73246,607.13667 751.52873,615.89886 C 750.43521,617.74015 752.0094,616.83256 793.5,591.70051 z M 210.51582,254 C 219.1449,238.325 228.1201,222.575 230.46072,219 C 234.04896,213.5194 269.94779,156.35373 272.47179,152.10114 C 273.57065,150.24969 271.84249,151.24811 230.5,176.34943 C 206.97584,190.63226 195.60936,198.07532 195.83354,199.04994 C 196.19551,200.62362 194.2799,266.12942 193.54218,277.4048 C 193.28582,281.32299 193.46589,283.91823 193.95849,283.4048 C 194.43594,282.90716 201.88673,269.675 210.51582,254 z M 743.78194,142.60077 C 743.07687,141.28119 732.6,123.7564 720.5,103.65679 C 701.73366,72.48356 698.20603,67.180838 696.5,67.580021 C 695.4,67.837404 675.825,67.406066 653,66.621494 C 630.175,65.836922 611.42105,65.267573 611.32456,65.356274 C 611.22807,65.444975 624.95307,73.131819 641.82456,82.438149 C 658.69605,91.74448 674.3,100.60237 676.5,102.12234 C 680.90646,105.16676 744.32986,144.9899 744.78194,144.99612 C 744.937,144.99825 744.487,143.92034 743.78194,142.60077 z M 29.702671,755.55768 C 12.962251,749.58622 4.7670015,731.38872 11.143271,714.34662 C 20.764811,688.63075 59.276851,688.7421 68.919231,714.51367 C 74.842971,730.3463 68.629071,746.5319 53.777801,753.95317 C 48.657281,756.51192 46.544751,756.99297 40.590281,756.95611 C 36.690621,756.93197 31.791201,756.30267 29.702671,755.55768 z M 49.095881,752.89994 C 62.753151,749.50438 71.247581,732.68906 67.083571,717.29205 C 64.117921,706.32617 52.431011,698 40.004561,698 C 19.211341,698 5.7939515,719.10597 14.575951,738 C 18.816691,747.12373 24.391931,751.60579 33.987431,753.60532 C 39.459441,754.74558 42.184201,754.61837 49.095881,752.89994 z M 970.31594,751.67392 C 961.93269,748.58312 954.85604,741.21786 952.04583,732.65869 C 950.17986,726.97543 951.0911,716.44988 953.93846,710.79722 C 962.34386,694.11058 985.20731,689.62799 999.17995,701.9272 C 1007.0432,708.84867 1010.6313,719.62593 1008.5473,730.06262 C 1006.5955,739.83733 999.29467,748.34865 990.20527,751.44572 C 984.90681,753.25109 974.90499,753.36585 970.31594,751.67392 z M 989.90359,748.28611 C 1003.3472,743.49665 1009.9417,727.03356 1003.9737,713.16056 C 999.88922,703.66587 990.99018,698.05897 979.94634,698.02196 C 964.8405,697.97134 954.04392,708.79944 954.04392,724 C 954.04392,737.36677 962.3477,747.47139 975.34375,749.9191 C 980.2367,750.84065 983.88027,750.432 989.90359,748.28611 z M 117,640.12078 C 107.6662,637.06255 99.174821,629.65069 95.094331,621 C 92.869911,616.28422 92.500001,614.14544 92.500001,606 C 92.500001,597.85456 92.869911,595.71578 95.094331,591 C 98.402711,583.98619 104.98619,577.40271 112,574.09433 C 116.71578,571.86991 118.85456,571.5 127,571.5 C 135.14967,571.5 137.28177,571.86916 142,574.09718 C 168.46825,586.59587 168.93227,624.20273 142.78415,637.64899 C 138.39347,639.90683 135.97823,640.41478 128.5,640.65309 C 123.55,640.81084 118.375,640.5713 117,640.12078 z M 136.76117,636.80727 C 145.34253,634.64551 154.26545,626.09327 157.57283,616.86017 C 159.57558,611.26916 159.57558,600.73084 157.57283,595.13983 C 154.41106,586.31322 146.68429,578.564 137.98445,575.49451 C 132.36643,573.51236 121.54388,573.59722 115.42814,575.67139 C 108.59271,577.98963 99.155281,587.57731 96.635241,594.76347 C 94.098321,601.99776 94.646881,613.69224 97.828161,620.19487 C 102.33452,629.40598 111.6428,636.30961 121.7315,637.92316 C 126.84257,638.7406 130.02427,638.50438 136.76117,636.80727 z M 887,640.12078 C 877.6662,637.06255 869.17482,629.65069 865.09433,621 C 862.86991,616.28422 862.5,614.14544 862.5,606 C 862.5,597.85456 862.86991,595.71578 865.09433,591 C 868.40271,583.98619 874.98619,577.40271 882,574.09433 C 886.71578,571.86991 888.85456,571.5 897,571.5 C 905.14967,571.5 907.28177,571.86916 912,574.09718 C 938.46825,586.59587 938.93227,624.20273 912.78415,637.64899 C 908.39347,639.90683 905.97823,640.41478 898.5,640.65309 C 893.55,640.81084 888.375,640.5713 887,640.12078 z M 906.76117,636.80727 C 915.34253,634.64551 924.26545,626.09327 927.57283,616.86017 C 928.43185,614.46208 929.13468,609.575 929.13468,606 C 929.13468,592.04009 920.79754,580.01524 907.98445,575.49451 C 902.36643,573.51236 891.54388,573.59722 885.42814,575.67139 C 878.59271,577.98963 869.15528,587.57731 866.63524,594.76347 C 864.09832,601.99776 864.64688,613.69224 867.82817,620.19487 C 872.33452,629.40598 881.6428,636.30961 891.7315,637.92316 C 896.84257,638.7406 900.02427,638.50438 906.76117,636.80727 z M 58.000001,418.12078 C 48.666201,415.06255 40.174821,407.65069 36.094331,399 C 33.869911,394.28422 33.500001,392.14544 33.500001,384 C 33.500001,375.85456 33.869911,373.71578 36.094331,369 C 39.402711,361.98619 45.986191,355.40271 53.000001,352.09433 C 57.715781,349.86991 59.854561,349.5 68.000001,349.5 C 76.149671,349.5 78.281771,349.86916 83.000001,352.09718 C 109.46825,364.59587 109.93227,402.20273 83.784151,415.64899 C 79.393471,417.90683 76.978231,418.41478 69.500001,418.65309 C 64.550001,418.81084 59.375001,418.5713 58.000001,418.12078 z M 77.761171,414.80727 C 86.342531,412.64551 95.265451,404.09327 98.572831,394.86017 C 100.57558,389.26916 100.57558,378.73084 98.572831,373.13983 C 95.411061,364.31322 87.684291,356.564 78.984451,353.49451 C 73.366431,351.51236 62.543881,351.59722 56.428141,353.67139 C 49.592711,355.98963 40.155281,365.57731 37.635241,372.76347 C 35.098321,379.99776 35.646881,391.69224 38.828161,398.19487 C 43.334521,407.40598 52.642801,414.30961 62.731501,415.92316 C 67.842571,416.7406 71.024271,416.50438 77.761171,414.80727 z M 946,418.12078 C 936.6662,415.06255 928.17482,407.65069 924.09433,399 C 921.86991,394.28422 921.5,392.14544 921.5,384 C 921.5,375.85456 921.86991,373.71578 924.09433,369 C 927.40271,361.98619 933.98619,355.40271 941,352.09433 C 945.71578,349.86991 947.85456,349.5 956,349.5 C 964.14967,349.5 966.28177,349.86916 971,352.09718 C 997.46825,364.59587 997.93227,402.20273 971.78415,415.64899 C 967.39347,417.90683 964.97823,418.41478 957.5,418.65309 C 952.55,418.81084 947.375,418.5713 946,418.12078 z M 965.76117,414.80727 C 974.34253,412.64551 983.26545,404.09327 986.57283,394.86017 C 987.43185,392.46208 988.13468,387.575 988.13468,384 C 988.13468,370.04009 979.79754,358.01524 966.98445,353.49451 C 961.36643,351.51236 950.54388,351.59722 944.42814,353.67139 C 937.59271,355.98963 928.15528,365.57731 925.63524,372.76347 C 923.09832,379.99776 923.64688,391.69224 926.82817,398.19487 C 931.33452,407.40598 940.6428,414.30961 950.7315,415.92316 C 955.84257,416.7406 959.02427,416.50438 965.76117,414.80727 z M 117,196.12078 C 107.6662,193.06255 99.174821,185.65069 95.094331,177 C 92.869911,172.28422 92.500001,170.14544 92.500001,162 C 92.500001,153.85456 92.869911,151.71578 95.094331,147 C 98.402711,139.98619 104.98619,133.40271 112,130.09433 C 116.71578,127.86991 118.85456,127.5 127,127.5 C 135.14967,127.5 137.28177,127.86916 142,130.09718 C 168.46825,142.59587 168.93227,180.20273 142.78415,193.64899 C 138.39347,195.90683 135.97823,196.41478 128.5,196.65309 C 123.55,196.81084 118.375,196.5713 117,196.12078 z M 136.76117,192.80727 C 145.34253,190.64551 154.26545,182.09327 157.57283,172.86017 C 159.57558,167.26916 159.57558,156.73084 157.57283,151.13983 C 154.41106,142.31322 146.68429,134.564 137.98445,131.49451 C 132.36643,129.51236 121.54388,129.59722 115.42814,131.67139 C 108.59271,133.98963 99.155281,143.57731 96.635241,150.76347 C 94.098321,157.99776 94.646881,169.69224 97.828161,176.19487 C 102.33452,185.40598 111.6428,192.30961 121.7315,193.92316 C 126.84257,194.7406 130.02427,194.50438 136.76117,192.80727 z M 887,196.12078 C 877.6662,193.06255 869.17482,185.65069 865.09433,177 C 862.86991,172.28422 862.5,170.14544 862.5,162 C 862.5,153.85456 862.86991,151.71578 865.09433,147 C 868.40271,139.98619 874.98619,133.40271 882,130.09433 C 886.71578,127.86991 888.85456,127.5 897,127.5 C 905.14967,127.5 907.28177,127.86916 912,130.09718 C 938.46825,142.59587 938.93227,180.20273 912.78415,193.64899 C 908.39347,195.90683 905.97823,196.41478 898.5,196.65309 C 893.55,196.81084 888.375,196.5713 887,196.12078 z M 906.76117,192.80727 C 915.34253,190.64551 924.26545,182.09327 927.57283,172.86017 C 928.43185,170.46208 929.13468,165.575 929.13468,162 C 929.13468,148.04009 920.79754,136.01524 907.98445,131.49451 C 902.36643,129.51236 891.54388,129.59722 885.42814,131.67139 C 878.59271,133.98963 869.15528,143.57731 866.63524,150.76347 C 864.09832,157.99776 864.64688,169.69224 867.82817,176.19487 C 872.33452,185.40598 881.6428,192.30961 891.7315,193.92316 C 896.84257,194.7406 900.02427,194.50438 906.76117,192.80727 z M 34.315941,71.673922 C 25.932691,68.583122 18.856041,61.217863 16.045831,52.65869 C 14.179861,46.975428 15.091091,36.449883 17.938451,30.797223 C 26.343861,14.110583 49.207311,9.6279872 63.179951,21.9272 C 71.043161,28.84867 74.631331,39.625927 72.547341,50.062624 C 70.595541,59.837335 63.294671,68.348654 54.205271,71.445724 C 48.906811,73.25109 38.904991,73.365845 34.315941,71.673922 z M 53.903591,68.28611 C 67.347161,63.496652 73.941731,47.033559 67.973721,33.160559 C 63.889221,23.665865 54.990181,18.058971 43.946341,18.021962 C 28.840501,17.971341 18.043921,28.799435 18.043921,44 C 18.043921,57.366771 26.347701,67.471385 39.343741,69.919101 C 44.236701,70.840655 47.880271,70.432002 53.903591,68.28611 z M 973.70268,71.557676 C 956.96225,65.586222 948.767,47.388721 955.14327,30.346624 C 964.76481,4.63075 1003.2768,4.7420989 1012.9192,30.51367 C 1018.843,46.346299 1012.6291,62.531901 997.7778,69.953169 C 992.65728,72.511923 990.54475,72.992969 984.59028,72.956107 C 980.69062,72.931966 975.7912,72.302672 973.70268,71.557676 z M 993.09588,68.899944 C 1006.7532,65.504381 1015.2476,48.689057 1011.0836,33.29205 C 1008.1179,22.32617 996.43102,14 984.00456,14 C 963.21134,14 949.79395,35.105972 958.57595,54 C 962.81669,63.123727 968.39193,67.605788 977.98743,69.605316 C 983.45944,70.745584 986.1842,70.618373 993.09588,68.899944 z M 280,33.120779 C 267.11075,28.897601 256.62447,16.719893 255.23093,4.3564761 C 254.845,0.93248046 255.06096,-7.6043941e-016 256.2399,-3.5527137e-015 C 257.2713,-5.9955698e-015 257.89516,1.3774972 258.2369,4.4094427 C 259.69516,17.347098 271.14981,28.721497 284.91122,30.896882 C 302.41828,33.664376 319.88031,21.113467 321.7631,4.4094427 C 322.10635,1.3641488 322.72702,0 323.76934,0 C 324.98953,0 325.16694,0.94266987 324.69564,4.9220479 C 323.48826,15.116509 315.89102,25.451692 305.78415,30.648988 C 301.39347,32.906826 298.97823,33.414775 291.5,33.653093 C 286.55,33.810841 281.375,33.5713 280,33.120779 z M 724,33.120779 C 711.11075,28.897601 700.62447,16.719893 699.23093,4.3564761 C 698.845,0.93248046 699.06096,-7.6043941e-016 700.2399,-3.5527137e-015 C 701.2713,-5.9955698e-015 701.89516,1.3774972 702.2369,4.4094427 C 704.11969,21.113467 721.58172,33.664376 739.08878,30.896882 C 752.85019,28.721497 764.30484,17.347098 765.7631,4.4094427 C 766.10635,1.3641488 766.72702,0 767.76934,0 C 768.98953,0 769.16694,0.94266987 768.69564,4.9220479 C 767.48826,15.116509 759.89102,25.451692 749.78415,30.648988 C 745.39347,32.906826 742.97823,33.414775 735.5,33.653093 C 730.55,33.810841 725.375,33.5713 724,33.120779 z "
     style="fill:#000000"
     id="path4853" />
</svg>
